<svg xmlns="http://www.w3.org/2000/svg" width="945" height="2026" viewBox="0 0 945 2026">
  <defs>
    <style>
      .cls-1 {
        fill: #b99d3c;
        fill-rule: evenodd;
      }
    </style>
  </defs>
  <path id="椭圆_3" data-name="椭圆 3" class="cls-1" d="M1459.5,4694a4.5,4.5,0,1,1-4.5,4.5A4.494,4.494,0,0,1,1459.5,4694ZM1833,5297a6,6,0,1,1-6,6A6,6,0,0,1,1833,5297Zm-241.5,786a7.5,7.5,0,1,1-7.5,7.5A7.5,7.5,0,0,1,1591.5,6083Zm739.5-48a6,6,0,1,1-6,6A6,6,0,0,1,2331,6035Zm-265.5-396a4.5,4.5,0,1,1-4.5,4.5A4.494,4.494,0,0,1,2065.5,5639ZM1891,6395a3,3,0,1,1-3,3A3,3,0,0,1,1891,6395Zm-495.5,317a4.036,4.036,0,1,1-3.5,4A3.777,3.777,0,0,1,1395.5,6712Z" transform="translate(-1392 -4694)"/>
</svg>
