<svg xmlns="http://www.w3.org/2000/svg" width="1152" height="2101" viewBox="0 0 1152 2101">
  <defs>
    <style>
      .cls-1 {
        fill: #b99d3c;
        fill-rule: evenodd;
      }
    </style>
  </defs>
  <path id="椭圆_8" data-name="椭圆 8" class="cls-1" d="M2531.5,6752a3.5,3.5,0,1,1-3.5,3.5A3.5,3.5,0,0,1,2531.5,6752ZM2481,4658a4,4,0,1,1-4,4A4,4,0,0,1,2481,4658ZM1437,5171a6,6,0,1,1-6,6A6,6,0,0,1,1437,5171Zm999,21a3,3,0,1,1-3,3A3,3,0,0,1,2436,5192ZM1387.5,5582a4.5,4.5,0,1,1-4.5,4.5A4.494,4.494,0,0,1,1387.5,5582Zm1074-21c4.14,0,7.5,2.91,7.5,6.5s-3.36,6.5-7.5,6.5-7.5-2.91-7.5-6.5S2457.36,5561,2461.5,5561Zm-291,1026a3.036,3.036,0,1,1-3.5,3A3.279,3.279,0,0,1,2170.5,6587ZM1983,4787a2,2,0,1,1-2,2A2.006,2.006,0,0,1,1983,4787Zm-219,236a1,1,0,1,1-1,1A1,1,0,0,1,1764,5023Z" transform="translate(-1383 -4658)"/>
</svg>
