<svg xmlns="http://www.w3.org/2000/svg" width="952" height="1908" viewBox="0 0 952 1908">
  <defs>
    <style>
      .cls-1 {
        fill: #6897c5;
        fill-rule: evenodd;
      }
    </style>
  </defs>
  <path id="椭圆_17" data-name="椭圆 17" class="cls-1" d="M2301.5,4708a4.5,4.5,0,1,1-4.5,4.5A4.494,4.494,0,0,1,2301.5,4708ZM1476,4947a5,5,0,1,1-5,5A5,5,0,0,1,1476,4947Zm753.5,119a3.5,3.5,0,1,1-3.5,3.5A3.5,3.5,0,0,1,2229.5,5066ZM2417,5740a5,5,0,1,1-5,5A5,5,0,0,1,2417,5740Zm-542,864a6,6,0,1,1-6,6A6,6,0,0,1,1875,6604Zm-402-359a3,3,0,1,1-3,3A3,3,0,0,1,1473,6245Z" transform="translate(-1470 -4708)"/>
</svg>
