<svg xmlns="http://www.w3.org/2000/svg" width="1111" height="1878" viewBox="0 0 1111 1878">
  <defs>
    <style>
      .cls-1 {
        fill: #6897c5;
        fill-rule: evenodd;
      }
    </style>
  </defs>
  <path id="椭圆_18" data-name="椭圆 18" class="cls-1" d="M1863,5571c2.76,0,5,2.69,5,6s-2.24,6-5,6-5-2.69-5-6S1860.24,5571,1863,5571Zm-470.5,377a7.5,7.5,0,1,1-7.5,7.5A7.5,7.5,0,0,1,1392.5,5948ZM2403,6574a6,6,0,1,1-6,6A6,6,0,0,1,2403,6574ZM1698,4708a4,4,0,1,1-4,4A4,4,0,0,1,1698,4708Zm795,242a3,3,0,1,1-3,3A3,3,0,0,1,2493,4950ZM1933,5998a5,5,0,1,1-5,5A5,5,0,0,1,1933,5998Z" transform="translate(-1385 -4708)"/>
</svg>
